#!OML:ASF F:\VICON\USERDATA\INSTALL\rory3\rory3.ASF
:FULLY-SPECIFIED
:DEGREES
75
root -0.7668765050318702 17.590292901269382 15.98194912651341 4.322771847303092 0.9754004059123106 0.3327158118560489
lfemur 8.410068428895041 -0.5243043548060813 -27.222111462377846
ltibia 22.339091766297834
lfoot 2.3336905341716574 -12.988460154637208
ltoes -29.863555379350274
rfemur -46.84926978003355 -5.914092035498042 20.975424826044385
rtibia 61.062695566673675
rfoot 1.9403089206748825 2.004112811992834
rtoes -9.67628888088548
lowerback 1.0 -0.9007059560094972 -3.718527392588488
upperback -1.1103108495451155 -1.263552038071372 0.19729815884726132
thorax -10.69702355503008 -0.42183727767600593 3.758480934769451
lowerneck -22.32007397505239 -2.088730034815144 -1.9605173826738675
upperneck 7.449056021108113 -3.9618875809172795 4.146079334337141
head 6.285145758407874 -1.1293917560908604 1.2249992650639543
lclavicle 1.9232913144707048e-14 -6.083118220288415e-15
lhumerus -31.67655479236251 -15.673872361132151 93.77691384975357
lradius 131.4424013375729
lwrist 53.23523100909453
lhand -27.175882238324917 -0.35723393179412777
lfingers nan
lthumb -0.9533621850416285 29.463460918949927
rclavicle 2.2354872981845954e-14 -5.222744230839948e-15
rhumerus -64.35020163332442 9.939416507003099 -99.67618600993934
rradius 118.49964189809228
rwrist -5.18703242402243
rhand -13.697399089736814 1.0
rfingers nan
rthumb 12.17786260518828 5.602343572381715
76
root -0.7642612590242086 17.700484706539935 15.818517137433059 4.59265486761052 -0.759779066364201 0.06715714150420737
lfemur 9.489445679031242 0.22818749935885363 -26.781574010493614
ltibia 20.530258984300552
lfoot 8.226971843494132 -15.156025326830285
ltoes -32.713571908908825
rfemur -47.33074605154812 -4.054094838654056 21.512681007218987
rtibia 55.02619854715013
rfoot 1.1426501854768167 2.4124573945614793
rtoes -14.16404536833534
lowerback 1.0 -0.7214923009214744 -3.786311081825904
upperback -1.449558179402851 -1.027124138536529 0.3534294351883165
thorax -10.77653916457099 -0.2666538198023873 3.7192380766194226
lowerneck -21.74073358853105 -1.9456423995613856 -2.014453823427675
upperneck 7.920517552876225 -3.8006645331403552 3.985453535251273
head 6.3333128507209215 -1.090774310717703 1.2054701184971064
lclavicle 2.097179894725089e-14 -1.537903623704278e-15
lhumerus -32.01819652516324 -15.801033029746371 93.8234181802837
lradius 132.10387451881323
lwrist 53.54902774575801
lhand -26.686866660556582 -0.3862139435233909
lfingers nan
lthumb -0.5023915286100031 29.420869291769097
rclavicle 2.3779643012886095e-14 -8.693478755883997e-16
rhumerus -64.79730628778722 9.59356839854928 -99.10268092187786
rradius 118.86501236586142
rwrist -2.223145335842828
rhand -13.989459484131396 1.0
rfingers nan
rthumb 11.92494915480555 6.358485965193301
77
root -0.7416783076142791 17.833712891770556 16.000836370458888 4.776255458255109 -1.9422895271763367 -0.0839290562058026
lfemur 10.638022694455682 0.6274115944343359 -26.463910992541816
ltibia 18.526714801387435
lfoot 14.92826593614649 -17.104131414959483
ltoes -34.4375530867787
rfemur -47.44095290769272 -2.7304421217291903 21.777900761356037
rtibia 48.67403191973504
rfoot -0.0498915932836157 2.873974695111884
rtoes -18.92258936857816
lowerback 1.0 -0.6654177490816289 -3.640556272123777
upperback -1.6776761596850744 -0.8799645979894335 0.4347059122262784
thorax -10.546745728333084 -0.18655589544909673 3.5814995421520157
lowerneck -20.720942942501175 -1.8476682163677731 -1.9639505631275287
upperneck 7.864951575428325 -3.6632123363403917 3.6612809383579688
head 6.149694194466996 -1.0784626440649476 1.114785283299236
lclavicle 1.798941417377666e-14 2.4135759988847514e-15
lhumerus -32.38574356778021 -15.693753555689966 93.86276931976488
lradius 132.44316715321702
lwrist 52.85269674344174
lhand -25.16589666028201 -0.46573860762336816
lfingers nan
lthumb 0.9559416517795789 29.35265270237338
rclavicle 2.1383867077272195e-14 3.4640718406870966e-15
rhumerus -65.16092002035302 9.143287688775562 -98.31258006349678
rradius 119.32174203098458
rwrist -0.9260483831527999
rhand -13.892401104437262 1.0
rfingers nan
rthumb 12.021905883972185 6.772404725083292
78
root -0.7139311474387611 17.962733330063198 16.38855380644593 4.827003098977106 -2.985415856339105 -0.2365454107308993
lfemur 11.780643901906753 0.7198499304911619 -26.240393610575858
ltibia 16.500471328434884
lfoot 23.88874249137433 -19.609941039540047
ltoes -34.26864248915636
rfemur -47.18460250693451 -1.657527252174532 21.93691334316085
rtibia 42.16623859753838
rfoot -1.2430081997473148 3.2287382466520844
rtoes -25.188607537540385
lowerback 1.0 -0.6846906143917666 -3.427245031990072
upperback -1.9796997059877768 -0.8061525138594112 0.5030441391933445
thorax -10.62034926833977 -0.15880047031706662 3.490142214979612
lowerneck -18.819660536076668 -1.7628721081749164 -1.9928087560131151
upperneck 7.6019156252292 -3.5018713809332036 3.36551964240046
head 5.788642570177048 -1.0583833139396226 1.064273945769404
lclavicle 2.0716237721136226e-14 1.9641353519158577e-14
lhumerus -33.04923252407005 -15.702873653126472 94.03387801736908
lradius 132.65157107493647
lwrist 49.693867965491066
lhand -25.386636111063332 0.1579362327399631
lfingers nan
lthumb 0.74032364939473 29.954563755790183
rclavicle 2.402481721253891e-14 2.0638246380046534e-14
rhumerus -65.62643098385298 8.691963027997465 -97.7529127753009
rradius 119.69737738766344
rwrist 0.4542720006938783
rhand -14.345672188248304 1.0
rfingers nan
rthumb 11.571764556265276 7.151035436455841
